<svg width="251.958" height="70.811" viewBox="0 0 251.958 70.811" xmlns="http://www.w3.org/2000/svg"><g id="svgGroup" stroke-linecap="round" fill-rule="evenodd" font-size="9pt" stroke="#000" stroke-width="0.25mm" fill="#000" style="stroke:#000;stroke-width:0.25mm;fill:#000"><path d="M 129.639 70.318 L 124.512 70.318 L 124.512 0.494 L 153.32 0.494 Q 172.266 0.494 172.266 17.242 Q 172.266 31.744 151.709 37.798 L 175.293 70.318 L 168.262 70.318 L 145.068 37.945 L 145.068 34.478 Q 166.553 31.304 166.553 17.632 Q 166.553 5.035 152.49 5.035 L 129.639 5.035 L 129.639 70.318 Z M 83.691 45.904 L 57.373 0.494 L 63.477 0.494 L 86.084 41.021 L 109.375 0.494 L 114.99 0.494 L 88.818 45.904 L 88.818 70.318 L 83.691 70.318 L 83.691 45.904 Z M 182.373 35.504 Q 182.373 0.006 217.432 0.006 Q 251.953 0.006 251.953 35.504 Q 251.953 70.806 217.432 70.806 Q 182.373 70.806 182.373 35.504 Z M 45.996 0.494 L 53.027 0.494 L 19.775 33.55 L 54.199 70.318 L 46.533 70.318 L 14.648 35.259 L 14.648 32.232 L 45.996 0.494 Z M 187.988 35.211 Q 187.988 66.412 217.432 66.412 Q 246.338 66.412 246.338 35.211 Q 246.338 4.4 217.432 4.4 Q 187.988 4.4 187.988 35.211 Z M 0 0.494 L 5.127 0.494 L 5.127 70.318 L 0 70.318 L 0 0.494 Z" vector-effect="non-scaling-stroke"/></g></svg>